<?xml version="1.0" encoding="utf-8"?>
<!-- Generator: Adobe Illustrator 24.3.0, SVG Export Plug-In . SVG Version: 6.00 Build 0)  -->
<svg version="1.1" id="Capa_1" xmlns="http://www.w3.org/2000/svg" xmlns:xlink="http://www.w3.org/1999/xlink" x="0px" y="0px"
	 viewBox="0 0 595.3 100.3" style="enable-background:new 0 0 595.3 100.3;" xml:space="preserve">
<style type="text/css">
	.st0{fill:#FFFFFF;}
	.st1{fill:none;stroke:#FFFFFF;stroke-width:1.5;stroke-miterlimit:10;}
	.st2{fill:#A95517;}
</style>
<g>
	<path class="st0" d="M727.3,47.6V6.4l-18.1,24.2L691.3,6.4v41.2H686V-9.9l23.2,31.5l23.4-31.4v57.5L727.3,47.6L727.3,47.6z"/>
	<path class="st0" d="M750.2,47.6h-5.4V-9.7l34.4,42.4V-9.1h5.4v57L750.2,5.5V47.6z"/>
	<path class="st0" d="M791.8,47.6l23.3-57.8l23,57.8h-5.8l-4.7-11.9h-25.2l-4.8,11.9H791.8z M804.6,30.3h20.9L815.1,4.3L804.6,30.3z
		"/>
	<path class="st0" d="M850.8,47.6h-5.4V-9.1h21c9.7,0,17.8,7.3,18.8,16.9s-5.3,18.5-14.8,20.5l14.7,19.3h-6.8L864,28.8h-13.3
		L850.8,47.6L850.8,47.6z M850.8,23.4h15.7c7.5,0,13.5-6.1,13.5-13.5s-6.1-13.5-13.5-13.5h-15.7V23.4z"/>
</g>
<line class="st1" x1="897.9" y1="-9.1" x2="897.9" y2="47.6"/>
<g>
	<path class="st0" d="M917.8,4.5v-8.7L914,1l-3.8-5.1v8.6h-1.1V-7.6l4.9,6.6l4.9-6.6V4.5H917.8z"/>
	<path class="st0" d="M927.8-7.4h1.1v8.1c0,1.4-0.7,2.7-1.9,3.3s-2.7,0.7-3.8,0s-1.9-2-1.9-3.3v-8.1h1.1v8.1c0,1,0.5,1.9,1.3,2.4
		s1.9,0.5,2.7,0c0.8-0.5,1.3-1.4,1.3-2.4L927.8-7.4L927.8-7.4z"/>
	<path class="st0" d="M933.6,3.4c1.1,0,2-0.7,2.3-1.7c0.3-1-0.2-2.1-1.1-2.6l-2.7-1.5c-1-0.6-1.5-1.8-1.2-2.9s1.3-1.9,2.5-1.9h0.3
		c0.9,0,1.8,0.5,2.2,1.3l-1,0.6c-0.3-0.4-0.8-0.7-1.3-0.7h-0.3c-0.7,0-1.3,0.4-1.4,1.1s0.1,1.3,0.7,1.7l2.7,1.5
		c1.4,0.8,2,2.4,1.6,3.9c-0.4,1.5-1.8,2.6-3.3,2.6h0c-1.1,0-2.1-0.5-2.8-1.4l0.9-0.7C932.1,3.1,932.8,3.4,933.6,3.4L933.6,3.4
		L933.6,3.4z"/>
	<path class="st0" d="M946.1,4.5h-7.2V-7.4h7.2v1.1h-6v5.7h5.3v1.1h-5.3v2.8h6V4.5z"/>
	<path class="st0" d="M947.3-1.4c0-3.3,2.7-5.9,6-5.9c3.3,0,6,2.7,6,5.9c0,3.3-2.7,5.9-6,5.9C949.9,4.5,947.3,1.9,947.3-1.4z
		 M948.4-1.4c0,2.7,2.2,4.8,4.8,4.8s4.8-2.2,4.8-4.8s-2.2-4.8-4.8-4.8C950.5-6.2,948.4-4.1,948.4-1.4z"/>
	<path class="st0" d="M966.8,4.5h-1.1v-12l7.2,8.9v-8.8h1.1v12l-7.2-8.9V4.5z"/>
	<path class="st0" d="M975.6,4.5l4.9-12.1l4.8,12.1h-1.2l-1-2.5h-5.3l-1,2.5H975.6z M978.2,0.9h4.4l-2.2-5.5L978.2,0.9z"/>
	<path class="st0" d="M994.7,2.3l0.7,0.9c-2,1.7-4.9,1.8-7.1,0.4s-3.2-4.2-2.4-6.7s3.1-4.2,5.7-4.2c1.3,0,2.6,0.4,3.7,1.3l-0.7,0.9
		c-0.8-0.7-1.9-1-3-1c-2.7,0-4.8,2.2-4.8,4.8s2.2,4.8,4.8,4.8C992.8,3.4,993.8,3,994.7,2.3z"/>
	<path class="st0" d="M997.1,4.5V-7.4h1.1V4.5H997.1z"/>
	<path class="st0" d="M1000.2-1.4c0-3.3,2.7-5.9,6-5.9c3.3,0,6,2.7,6,5.9c0,3.3-2.7,5.9-6,5.9C1002.9,4.5,1000.2,1.9,1000.2-1.4z
		 M1001.4-1.4c0,2.7,2.2,4.8,4.8,4.8s4.8-2.2,4.8-4.8s-2.2-4.8-4.8-4.8C1003.5-6.2,1001.4-4.1,1001.4-1.4z"/>
	<path class="st0" d="M1015.2,4.5h-1.1v-12l7.2,8.9v-8.8h1.1v12l-7.2-8.9V4.5z"/>
	<path class="st0" d="M1024,4.5l4.9-12.1l4.8,12.1h-1.2l-1-2.5h-5.3l-1,2.5H1024z M1026.6,0.9h4.4l-2.2-5.5L1026.6,0.9z"/>
	<path class="st0" d="M1041.5,4.5h-6.3V-7.4h1.1V3.4h5.2V4.5z"/>
	<path class="st0" d="M917.5,19c0,3.3-2.7,6-6,6h-2.5V13h2.5C914.8,13,917.5,15.7,917.5,19z M916.4,19c0-2.7-2.2-4.8-4.8-4.8h-1.3
		v9.6h1.3C914.2,23.8,916.4,21.6,916.4,19z"/>
	<path class="st0" d="M926.6,24.9h-7.2V13h7.2v1.1h-6v5.7h5.3V21h-5.3v2.8h6V24.9z"/>
	<path class="st0" d="M932.1,24.9l4.9-12.1l4.8,12.1h-1.2l-1-2.5h-5.3l-1,2.5H932.1z M934.8,21.3h4.4l-2.2-5.5L934.8,21.3z"/>
	<path class="st0" d="M944.4,24.9h-1.1V13h4.4c2,0,3.7,1.5,4,3.5c0.2,2-1.1,3.9-3.1,4.3l3.1,4h-1.4l-3-4h-2.8L944.4,24.9L944.4,24.9
		z M944.4,19.8h3.3c1.6,0,2.8-1.3,2.8-2.8s-1.3-2.8-2.8-2.8h-3.3V19.8z"/>
	<path class="st0" d="M955.5,14.2h-3.1V13h7.3v1.1h-3.1v10.8h-1.1L955.5,14.2L955.5,14.2z"/>
	<path class="st0" d="M968.3,24.9h-7.2V13h7.2v1.1h-6v5.7h5.3V21h-5.3v2.8h6V24.9z"/>
	<path class="st0" d="M975.9,24.9h-1.1V13h4.4c2,0,3.7,1.5,4,3.5c0.2,2-1.1,3.9-3.1,4.3l3.1,4h-1.4l-3-4h-2.8L975.9,24.9L975.9,24.9
		z M975.9,19.8h3.3c1.6,0,2.8-1.3,2.8-2.8s-1.3-2.8-2.8-2.8h-3.3V19.8z"/>
	<path class="st0" d="M984.6,19c0-3.3,2.7-5.9,6-5.9c3.3,0,6,2.7,6,5.9s-2.7,6-6,6C987.2,24.9,984.6,22.3,984.6,19z M985.7,19
		c0,2.7,2.2,4.8,4.8,4.8s4.8-2.2,4.8-4.8s-2.2-4.8-4.8-4.8S985.7,16.3,985.7,19z"/>
	<path class="st0" d="M1007.1,24.9v-8.7l-3.8,5.1l-3.8-5.1v8.6h-1.1V12.9l4.9,6.6l4.9-6.6v12.1C1008.2,24.9,1007.1,24.9,1007.1,24.9
		z"/>
	<path class="st0" d="M1009.7,24.9l4.9-12.1l4.8,12.1h-1.2l-1-2.5h-5.3l-1,2.5H1009.7z M1012.4,21.3h4.4l-2.2-5.5L1012.4,21.3z"/>
	<path class="st0" d="M1022.1,24.9h-1.1v-12l7.2,8.9V13h1.1v12l-7.2-8.9V24.9z"/>
	<path class="st0" d="M1031.3,19c0-3.3,2.7-5.9,5.9-5.9c3.3,0,5.9,2.7,5.9,5.9s-2.7,6-5.9,6C1033.9,24.9,1031.3,22.3,1031.3,19z
		 M1032.4,19c0,2.7,2.2,4.8,4.8,4.8s4.8-2.2,4.8-4.8s-2.2-4.8-4.8-4.8C1034.6,14.2,1032.4,16.3,1032.4,19z"/>
	<path class="st0" d="M917.5,39.4c0,3.3-2.7,6-6,6h-2.5V33.4h2.5C914.8,33.4,917.5,36.1,917.5,39.4z M916.4,39.4
		c0-2.7-2.2-4.8-4.8-4.8h-1.3v9.6h1.3C914.2,44.2,916.4,42,916.4,39.4z"/>
	<path class="st0" d="M926.6,45.3h-7.2V33.4h7.2v1.1h-6v5.7h5.3v1.1h-5.3v2.8h6V45.3z"/>
	<path class="st0" d="M941.8,45.3v-8.7l-3.8,5.1l-3.8-5.1v8.6h-1.1V33.2l4.9,6.6l4.9-6.6v12.1C942.9,45.3,941.8,45.3,941.8,45.3z"/>
	<path class="st0" d="M952.6,45.3h-7.2V33.4h7.2v1.1h-6v5.7h5.3v1.1h-5.3v2.8h6V45.3z"/>
	<path class="st0" d="M955.6,45.3h-1.1V33.4h4.4c2,0,3.7,1.5,4,3.5c0.2,2-1.1,3.9-3.1,4.3l3.1,4h-1.4l-3-4h-2.8L955.6,45.3
		L955.6,45.3z M955.6,40.2h3.3c1.6,0,2.8-1.3,2.8-2.8s-1.3-2.8-2.8-2.8h-3.3V40.2z"/>
	<path class="st0" d="M964.9,45.3V33.4h1.1v11.9H964.9z"/>
	<path class="st0" d="M977,39.4c0,3.3-2.7,6-6,6h-2.5V33.4h2.5C974.3,33.4,977,36.1,977,39.4z M975.9,39.4c0-2.7-2.2-4.8-4.8-4.8
		h-1.3v9.6h1.3C973.7,44.2,975.9,42,975.9,39.4z"/>
	<path class="st0" d="M977.4,45.3l4.9-12.1l4.8,12.1h-1.2l-1-2.5h-5.3l-1,2.5H977.4z M980.1,41.7h4.4l-2.2-5.5L980.1,41.7z"/>
</g>
<line class="st1" x1="1054.4" y1="-9.1" x2="1054.4" y2="47.6"/>
<g>
	<path class="st0" d="M948.4,29l-2.3,2.9H945l2-2.9H948.4z"/>
</g>
<line class="st1" x1="310.7" y1="9.8" x2="310.7" y2="66.5"/>
<g>
	<path class="st0" d="M332.9,23.4v-8.7l-4.2,5.1l-4.2-5.1v8.6h-1.3V11.3l5.4,6.6l5.5-6.6v12.1L332.9,23.4L332.9,23.4z"/>
	<path class="st0" d="M344.2,11.5h1.3v8.1c0,1.4-0.8,2.7-2.1,3.4c-1.3,0.7-3,0.7-4.3,0c-1.3-0.7-2.1-2-2.1-3.4v-8.1h1.3v8.1
		c0,1,0.6,1.9,1.5,2.4c0.9,0.5,2.1,0.5,3,0s1.5-1.4,1.5-2.4L344.2,11.5L344.2,11.5z"/>
	<path class="st0" d="M350.6,22.3c1.2,0,2.2-0.7,2.5-1.7c0.3-1-0.2-2.1-1.2-2.6l-3-1.5c-1.1-0.6-1.7-1.8-1.4-2.9
		c0.3-1.1,1.5-1.9,2.8-1.9h0.3c1,0,2,0.5,2.5,1.3l-1.1,0.6c-0.3-0.4-0.8-0.7-1.4-0.7h-0.3c-0.7,0-1.4,0.4-1.6,1.1
		c-0.2,0.6,0.1,1.3,0.8,1.7l3,1.5c1.5,0.8,2.3,2.4,1.8,3.9c-0.5,1.5-2,2.6-3.7,2.6h0c-1.2,0-2.4-0.5-3.1-1.4l1-0.7
		C349,21.9,349.7,22.3,350.6,22.3L350.6,22.3L350.6,22.3z"/>
	<path class="st0" d="M364.6,23.4h-8V11.5h8v1.1h-6.8v5.7h5.9v1.1h-5.9v2.8h6.8V23.4z"/>
	<path class="st0" d="M365.8,17.4c0-3.3,3-5.9,6.6-5.9c3.7,0,6.6,2.7,6.6,5.9c0,3.3-3,5.9-6.6,5.9C368.8,23.4,365.9,20.7,365.8,17.4
		z M367.1,17.4c0,2.7,2.4,4.8,5.4,4.8c3,0,5.4-2.2,5.4-4.8s-2.4-4.8-5.4-4.8C369.5,12.6,367.1,14.8,367.1,17.4z"/>
	<path class="st0" d="M387.7,23.4h-1.3v-12l8.1,8.9v-8.8h1.3v11.9l-8.1-8.9V23.4z"/>
	<path class="st0" d="M397.5,23.4l5.5-12.1l5.4,12.1H407l-1.1-2.5h-5.9l-1.1,2.5H397.5z M400.4,19.8h4.9l-2.4-5.5L400.4,19.8z"/>
	<path class="st0" d="M418.8,21.2l0.8,0.9c-2.3,1.7-5.5,1.8-7.9,0.4s-3.5-4.2-2.7-6.7s3.4-4.2,6.4-4.2c1.5,0,2.9,0.4,4.1,1.3
		l-0.8,0.9c-0.9-0.7-2.1-1-3.3-1c-3,0-5.4,2.2-5.4,4.8s2.4,4.8,5.4,4.8C416.6,22.3,417.8,21.9,418.8,21.2z"/>
	<path class="st0" d="M421.5,23.4V11.5h1.3v11.9H421.5z"/>
	<path class="st0" d="M425,17.4c0-3.3,3-5.9,6.6-5.9c3.7,0,6.6,2.7,6.6,5.9c0,3.3-3,5.9-6.6,5.9C428,23.4,425,20.7,425,17.4z
		 M426.2,17.4c0,2.7,2.4,4.8,5.4,4.8s5.4-2.2,5.4-4.8s-2.4-4.8-5.4-4.8C428.7,12.6,426.3,14.8,426.2,17.4z"/>
	<path class="st0" d="M441.7,23.4h-1.3v-12l8.1,8.9v-8.8h1.3v11.9l-8.1-8.9V23.4z"/>
	<path class="st0" d="M451.5,23.4l5.5-12.1l5.4,12.1H461l-1.1-2.5h-5.9l-1.1,2.5H451.5z M454.5,19.8h4.9l-2.4-5.5L454.5,19.8z"/>
	<path class="st0" d="M471.1,23.4H464V11.5h1.3v10.8h5.8L471.1,23.4L471.1,23.4z"/>
	<path class="st0" d="M332.6,37.8c0,3.3-3,5.9-6.6,5.9h-2.8V31.9h2.8C329.7,31.9,332.6,34.6,332.6,37.8z M331.4,37.8
		c0-2.7-2.4-4.8-5.4-4.8h-1.5v9.6h1.5C329,42.7,331.4,40.5,331.4,37.8z"/>
	<path class="st0" d="M342.8,43.8h-8V31.9h8V33h-6.8v5.7h5.9v1.1h-5.9v2.8h6.8V43.8z"/>
	<path class="st0" d="M348.9,43.8l5.5-12.1l5.4,12.1h-1.4l-1.1-2.5h-5.9l-1.1,2.5H348.9z M351.9,40.2h4.9l-2.4-5.5L351.9,40.2z"/>
	<path class="st0" d="M362.7,43.8h-1.3V31.9h4.9c2.3,0,4.2,1.5,4.4,3.5c0.2,2-1.3,3.9-3.5,4.3l3.4,4h-1.6l-3.4-3.9h-3.1L362.7,43.8
		L362.7,43.8z M362.7,38.7h3.7c1.8,0,3.2-1.3,3.2-2.8s-1.4-2.8-3.2-2.8h-3.7V38.7z"/>
	<path class="st0" d="M375,33h-3.4v-1.1h8.1V33h-3.4v10.8H375L375,33L375,33z"/>
	<path class="st0" d="M389.3,43.8h-8V31.9h8V33h-6.8v5.7h5.9v1.1h-5.9v2.8h6.8V43.8z"/>
	<path class="st0" d="M397.8,43.8h-1.3V31.9h4.9c2.3,0,4.2,1.5,4.4,3.5c0.2,2-1.3,3.9-3.5,4.3l3.4,4h-1.6l-3.4-3.9h-3.1L397.8,43.8
		L397.8,43.8z M397.8,38.7h3.7c1.8,0,3.2-1.3,3.2-2.8s-1.4-2.8-3.2-2.8h-3.7V38.7z"/>
	<path class="st0" d="M407.5,37.8c0-3.3,3-5.9,6.6-5.9c3.7,0,6.6,2.7,6.6,5.9s-3,5.9-6.6,5.9C410.5,43.8,407.5,41.1,407.5,37.8z
		 M408.8,37.8c0,2.7,2.4,4.8,5.4,4.8s5.4-2.2,5.4-4.8s-2.4-4.8-5.4-4.8C411.2,33,408.8,35.2,408.8,37.8z"/>
	<path class="st0" d="M432.6,43.8v-8.7l-4.2,5.1l-4.2-5.1v8.6H423V31.7l5.4,6.6l5.5-6.6v12.1L432.6,43.8L432.6,43.8z"/>
	<path class="st0" d="M435.6,43.8l5.5-12.1l5.4,12.1h-1.4l-1.1-2.5h-5.9l-1.1,2.5H435.6z M438.6,40.2h4.9l-2.4-5.5L438.6,40.2z"/>
	<path class="st0" d="M449.4,43.8h-1.3v-12l8.1,8.9v-8.8h1.3v11.9l-8.1-8.9V43.8z"/>
	<path class="st0" d="M459.6,37.8c0-3.3,3-5.9,6.6-5.9c3.7,0,6.6,2.7,6.6,5.9s-3,5.9-6.6,5.9C462.6,43.8,459.6,41.1,459.6,37.8z
		 M460.9,37.8c0,2.7,2.4,4.8,5.4,4.8c3,0,5.4-2.2,5.4-4.8s-2.4-4.8-5.4-4.8C463.3,33,460.9,35.2,460.9,37.8z"/>
	<path class="st0" d="M332.6,58.2c0,3.3-3,6-6.6,6h-2.8V52.3h2.8C329.7,52.3,332.6,55,332.6,58.2z M331.4,58.2
		c0-2.7-2.4-4.8-5.4-4.8h-1.5v9.6h1.5C329,63.1,331.4,60.9,331.4,58.2z"/>
	<path class="st0" d="M342.8,64.2h-8V52.3h8v1.1h-6.8v5.7h5.9v1.1h-5.9v2.8h6.8V64.2z"/>
	<path class="st0" d="M359.7,64.2v-8.7l-4.2,5.1l-4.2-5.1v8.6H350V52.1l5.4,6.6l5.5-6.6v12.1L359.7,64.2L359.7,64.2z"/>
	<path class="st0" d="M371.8,64.2h-8V52.3h8v1.1h-6.8v5.7h5.9v1.1h-5.9v2.8h6.8V64.2z"/>
	<path class="st0" d="M375.2,64.2h-1.3V52.3h4.9c2.3,0,4.2,1.5,4.4,3.5c0.2,2-1.3,3.9-3.5,4.3l3.4,4h-1.6l-3.4-4h-3.1L375.2,64.2
		L375.2,64.2z M375.2,59.1h3.7c1.8,0,3.2-1.3,3.2-2.8s-1.4-2.8-3.2-2.8h-3.7V59.1z"/>
	<path class="st0" d="M385.6,64.2V52.3h1.3v11.9H385.6z"/>
	<path class="st0" d="M399.1,58.2c0,3.3-3,6-6.6,6h-2.8V52.3h2.8C396.1,52.3,399.1,55,399.1,58.2z M397.8,58.2
		c0-2.7-2.4-4.8-5.4-4.8h-1.5v9.6h1.5C395.4,63.1,397.8,60.9,397.8,58.2z"/>
	<path class="st0" d="M399.5,64.2l5.5-12.1l5.4,12.1H409l-1.1-2.5H402l-1.1,2.5H399.5z M402.5,60.6h4.9l-2.4-5.5L402.5,60.6z"/>
</g>
<line class="st1" x1="485.4" y1="9.8" x2="485.4" y2="66.5"/>
<g>
	<path class="st0" d="M367.1,47.9l-2.6,2.9h-1.2l2.2-2.9H367.1z"/>
</g>
<image style="overflow:visible;enable-background:new    ;" width="692" height="380" xlink:href="DEB868D2.jpeg"  transform="matrix(0.9974 0 0 0.9974 1571.1056 -262.8824)">
</image>
<g>
	<path class="st2" d="M547.1,9.8c0,0.5,0.1,0.9,0.1,1.4c0,6,0,12.1-0.1,18.1c0,12.3-0.1,24.7-0.1,37c0,0.2,0,0.4,0,0.5
		c-16.8,0-33.6,0-50.4,0c0-19,0-38,0-57.1C513.3,9.8,530.2,9.8,547.1,9.8z M517,31.8c-0.7,0-1.3,0.1-1.8,0c-1.2-0.2-2.5,0.2-2.4,1.3
		c0.1,1.1-0.8,2.4,0.5,3.3c-0.1,0.8,0.6,1.3,1.1,1.9c0.1,0.1,0.1,0.3,0.2,0.4c0.1,0.4,0.3,0.8,0.4,1.2c0,0.2,0,0.3,0,0.5
		c-0.1,1.2-0.3,2.3-0.3,3.5c0,0.2,0.2,0.4,0.4,0.8c0.4-0.9,0.8-1.4,1.7-1.2c0.2,0.5,0.3,1,0.5,1.4c0.8,1.8,2.7,3.1,4.9,3.1
		c0.7,0,1.4,0.1,2.1,0c0.7,0,1.3-0.1,2-0.3c0.4-0.1,0.7-0.4,1.1-0.6c2-0.8,3-2.2,2.8-4.2c0-0.1,0-0.4,0.1-0.4
		c0.8-0.6,0.5-1.4,0.5-2.1c0-1.2,0.6-2,1.3-2.9c0.4-0.4,1.1-0.7,1.3-1.2c0.5-1.2,0.8-2.4,1.1-3.6c0.2-0.9-0.3-1.6-1.1-2
		c-0.4-0.2-1.1,0.1-1.6,0.2c-0.2,0-0.6,0.1-0.7,0c-1.1-0.9-1.9-1-3.2-0.4c-0.2,0.1-0.5,0.1-0.7,0c-0.5-0.1-0.9-0.1-1.1,0.4
		c-0.3,1-0.7,1.9-0.9,2.9c-0.1,0.4,0.2,0.8,0.5,1.2c0.3,0.5,0.6,0.9,0.9,1.4c-0.1,0-0.1,0.1-0.2,0.1c-0.5-0.3-1-0.5-1.5-0.8
		c-0.5,0.9-0.4,1.5,0.3,1.9c0.6,0.4,1.1,0.2,1.5-0.3c0.7,0.6,0.7,0.7-0.3,1.1c-0.4-0.6-0.8-0.4-1.3,0c-0.7,0.6-1.4,0.9-2.4,0.5
		c-0.3-0.1-0.7,0.1-1,0.1c-0.2,0-0.4-0.1-0.5-0.2c0.3-0.4,0.5-0.7,0.8-1.1c0.2-0.2,0.7-0.4,0.9-0.6c0.4-0.5,0.7-1.1,1.1-1.7
		c0.4-0.6,0.8-1.2,0.7-2.1c-0.1-0.9,0.2-1.9,0.3-2.8c0.1-0.2,0.4-0.5,0.6-0.6c1.1-0.4,2.2-0.7,3.3-1.1c0.2-0.1,0.4,0,0.7,0
		c-0.3,0.4-0.5,0.7-0.7,1c1,0,1.8,0.7,2.6,0c0.8,0.3,0.8-0.4,1-0.7c0.2-0.3,0.2-0.7,0.5-0.9c0.7-0.6,0.6-1.5,0.4-2.1
		c-0.3-1-0.6-1.9-0.3-2.9c0.1-0.3-0.1-0.7,0.1-0.8c0.2-0.2,0.6-0.1,1.1-0.2c-0.7-1.2-1.4-2.4-2-3.5c-0.1,0-0.2,0.1-0.4,0.1
		c0.3,1,0.5,2,0.8,3.1c-0.3,0.1-0.6,0.2-0.9,0.3c0.6-0.6,0-1-0.2-1.4c-0.3-0.6-0.7-1.2-1-1.9c-0.1-0.3-0.1-0.7-0.2-1.1
		c-0.7,1.1-0.9,2.1-0.6,3.3c-0.3-0.2-0.6-0.5-0.7-0.8c-0.1-0.6-0.2-1-0.9-1.2c-0.1,0-0.2-0.2-0.3-0.2c0.6-1,0.6-1-1.2-1.1
		c-0.2,0.6-0.6,1.2-0.6,1.8c0.1,1.2-0.6,1.9-1.6,2.4c-0.1,0.1-0.4,0.1-0.7,0.2c0.6-0.8,0.9-1.5,1.5-2.1c0.5-0.7,0.8-1.4,0.7-2
		c-0.4-0.2-0.7-0.4-1-0.6c-0.5-0.3-1-0.5-1.5,0.1c-0.3,0.3-0.5,0.5-1.1,0.3c-0.2-0.1-0.5,0.1-0.8,0.2c-0.4,0.2-0.7,0.4-1.2,0.7
		c-0.4-0.4-0.7-0.7-1.2-0.1c-0.5,0.6-1,1.3-1.6,2c-0.4-0.5-0.6-0.7,0-0.9c0.4-0.1,0.8-0.3,0.5-0.7c-1.6-0.2-2.9,0.4-3.3,1.6
		c-0.4,1.1-0.6,2.5,0.6,3.6c-0.4-0.2-0.8-0.3-1-0.6c-0.7-1.3-0.3-2.6,0.3-4c-1,0.2-1.7,0.8-2.1,1.9c0.4,0,0.7-0.1,1.1-0.1
		c-0.1,0.6-0.2,1-0.3,1.6c-1.5-0.9-1.5-0.9-1.8-0.7c-0.7,1.3,0,2.3,0.7,3.3c0.8-0.4,0.2-1.5,1.5-1.9c-0.1,0.7,0,1.4-0.4,1.9
		c-0.2,0.3-1.1,0.4-1.6,0.4c-0.4,0-0.7-0.3-1.1-0.5c-0.1,0.2-0.3,0.3-0.5,0.6c0-1.1,0-2,0-2.9c-0.1,0-0.2,0-0.3,0
		c-0.1,0.4-0.2,0.8-0.3,1.3c-0.6-0.5-0.8-0.9-0.5-1.5c0.1-0.3,0.2-0.6,0.3-0.8c0.4-0.6,0.8-1.3,1.3-1.9c0.5-0.6,1.2-1.1,1.8-1.6
		c-0.1-0.1-0.1-0.1-0.2-0.2c-0.5,0.3-1.1,0.5-1.5,0.9c-0.9,1-1.9,2-2.6,3.1c-0.9,1.4-1.3,2.9-1,4.7c0.4-0.1,0.7-0.3,1.2-0.4
		c0,0.6,0,1,0,1.5c0.2-0.5,0.2-1.1,0.4-1.6c0-0.2,0.3-0.3,0.4-0.5c0.2,0.2,0.5,0.3,0.5,0.5c0,0.4,0,0.7-0.1,1.1
		c0.3,0,0.6,0.1,0.8,0.1c0.1,0.4,0.1,0.7,0.2,1c0.2,0.7,0.5,0.8,1.1,0.3c0.1-0.1,0.4-0.2,0.6-0.2c0.6,0,1.2,0.1,1.8,0.2
		c-0.1,0.4-0.1,0.6-0.1,0.9c0,0.3,0,0.6,0,0.9c0.1,0.6,0.4,0.7,1,0.4c0.6-0.3,1.3-0.5,1.9-0.7c0.5-0.2,0.9-0.3,1.4-0.5
		c0.3-0.1,0.6-0.2,0.9-0.3c0,0,0,0.1,0,0.1c-0.1,0.1-0.3,0.2-0.5,0.4c0.4,0.2,0.7,0.3,0.9,0.4c-0.6,0.1-1,0-1.5,0
		C516.8,30.5,516.5,30.9,517,31.8z M517.7,65.1c1.4-0.1,2.7,0.2,3.7,1c0.5,0.4,1.1,0.4,1.7,0c0.5-0.3,0.5-0.7,0.4-1.2
		c0-0.4,0.1-0.8,0.4-1.2c0.1-0.1,0.6,0,0.9,0.1c0.2,0.1,0.3,0.4,0.4,0.5c0.2,0.2,0.6,0.6,0.7,0.6c0.5-0.2,1.4-0.6,1.4-0.9
		c0.1-0.7,0.7-1.7-0.6-2.1c-0.3-0.1-0.3-0.8-0.5-0.9c-0.9-0.3-0.9-0.7-0.2-1.2c0.1-0.1,0.1-0.2,0.1-0.3c-0.4-0.2-0.9-0.3-1.3-0.6
		c-0.5-0.3-0.7-0.9-0.3-1.3c0.8-0.8,0.7-1.5,0.2-2.4c-0.3-0.4-0.2-1,0.5-1.1c1-0.1,1.3-0.8,1.6-1.5c0.2-0.7,0.1-1-0.7-1.1
		c-1-0.2-2-0.2-3-0.5c-2.4-0.6-4.7-1.3-7.1-1.9c-0.2-0.1-0.6,0-0.7,0.1c-0.4,0.6-0.8,1.3-1.1,2c-0.1,0.3,0.1,0.7,0.2,1
		c0.1,0.4,0.3,0.8,0.5,1.2c0.1,0.3,0.3,0.6,0.4,1c0.1,0.4,0.3,0.9,0.4,1.3c0.1,0.4,0.1,0.8,0.6,1.1c0.2,0.1,0.4,0.8,0.3,1
		c-0.2,0.4-0.7,0.8-1.1,1.2c-0.7-0.6-1.5-1.1-2.3-1.8c-0.5,0.6-1,0.4-1.4-0.1c-0.1-0.2-0.3-0.3-0.5-0.4c-0.1,0-0.4,0.1-0.5,0.2
		c-0.2,0.5,1,1.8,1.5,1.7c0.5-0.1,0.8,0.1,1,0.6c0.4,0.8,0.5,1.9,1.8,2.2c0.1,0,0.1,0.2,0.2,0.3c0.1,0.2,0.2,0.4,0.3,0.6
		c0.1,0.3,0.3,0.5,0.2,0.8c-0.1,0.6,0.2,0.9,0.8,0.9C517.1,64.1,517.5,64.5,517.7,65.1z M509.9,42.1c0.2-0.2,0.4-0.3,0.5-0.4
		c0.2,0.1,0.4,0.2,0.7,0.4c0-0.4,0.2-0.8,0.1-1c-0.2-0.6-0.4-1.2-0.7-1.9c-0.4-1-0.4-1-1.4-0.3c-0.1-0.1-0.2-0.1-0.2-0.2
		c-1.2-0.8-1.2-1.1-0.1-2.1c0.2-0.1,0.2-0.6,0.1-0.8c-0.4-0.6-1.4-0.9-2.2-0.5c-0.6,0.3-1,0.8-0.8,1.6c0,0.2,0,0.5,0,0.9
		c-1-1.1-0.6-2.1,0.2-2.8c0.6-0.5,1.9-0.4,2.7,0.2c0.2,0.1,0.5,0.2,0.7,0.2c0.1-0.2,0.2-0.4,0.2-0.6c-0.1-0.4-0.2-0.8-0.5-1.1
		c-0.5-0.6-1.2-1.1-1.8-1.6c-0.2-0.2-0.2-0.6-0.2-0.9c0.1-1,0.2-2.1,0.3-3.2c-0.5,0.1-0.7,0.2-0.8,0.2c0,0.9,0.1,1.6,0,2.4
		c-0.1,0.6-0.2,1.2-0.5,1.7c-0.6,1-1.4,1.9-1.4,3.1c0,0.8,0.3,1.7,0.3,2.5c0,1.4,0.8,2.1,2,2.8C507.9,40.8,508.9,41.5,509.9,42.1z
		 M508.7,45.9c0.6,0.1,0.9,0.1,1.2,0.1c0.9,2.4,0.9,4.9,0.7,7.6c0.8-0.5,0.8-1.2,0.9-1.8c0.2-1.5,0.5-3,0.8-4.5
		c0.1-0.4,0.1-0.5-0.3-0.5c-0.8,0-0.9-0.1-0.6-1.1c0.1,0.4,0.1,0.6,0.2,1c0.6-0.6,0.5-1.2,0.2-1.6c-0.5-0.6-1.3-1.1-1.9-1.6
		c-0.2,0.3-0.3,0.6-0.6,0.7c-0.1,0.1-0.5-0.1-0.6-0.1c0-0.2,0-0.5,0.1-0.7c0.3-0.5,0.1-0.9-0.6-1.1c0,2.4,0,4.9,0,7.3
		c0.1,0,0.1,0,0.2,0C508.5,48.4,508.6,47.2,508.7,45.9z M540,39c1.8-0.9,2.4-1.9,2-3.1c-0.2-0.6-0.2-1.2-0.4-1.8
		c0-0.2,0-0.5-0.2-0.6c-0.3-0.2-0.6-0.4-0.9-0.4c-0.2,0-0.6,0.3-0.6,0.5c0.1,0.7,0.3,1.4,0.4,2.1c0,0.3,0,0.7-0.1,1
		c-0.2,0.4-0.8,0.7,0,1.2c0.1,0.1,0.1,0.3,0,0.5C540.2,38.4,540.1,38.6,540,39z M506,50.1c0.2-0.2,0.3-0.3,0.4-0.4
		c0.2-1.4,0.5-2.9,0.7-4.3c0.1-1.1-0.2-2.2,0.3-3.4c0.4-0.8,0.1-1-1-1.2C505.7,43.8,506.4,46.9,506,50.1z M531.6,15.6
		c0.1-0.1,0.1-0.2,0.2-0.2c-0.2-0.2-0.3-0.5-0.5-0.6c-0.6-0.2-1.3-0.4-2-0.6c-2.8-0.4-5.6-0.2-8.4-0.1c-0.5,0-1,0.3-1.5,0.5
		c0,0.1,0.1,0.1,0.1,0.2C523.5,14.3,527.6,14,531.6,15.6z M540.6,29.9c-0.5,0.6-1,1.2-1.5,1.9c-0.3,0.4-0.1,0.5,0.4,0.6
		c0.6,0.1,1.1,0.3,1.7,0.3c0.2,0,0.6,0,0.7-0.1c0.2-0.3,0.4-0.7,0.2-0.9C541.7,31.1,541.2,30.6,540.6,29.9z M540,49.6
		c0.1,0,0.2,0,0.4-0.1c0-0.7,0.1-1.4,0.1-2.1c0-1.4-0.2-1.6-1.7-1.5c-0.7,0-1.2,0.4-1.2,1.1c0,0.6,0,1.2,0,1.9
		c0,0.1,0.2,0.2,0.3,0.5c0.1-0.3,0.1-0.4,0.2-0.5c0.1-0.6,0.2-1.2,0.4-1.8c0.1-0.2,0.5-0.5,0.8-0.5c0.4,0,0.6,0.3,0.6,0.7
		c-0.1,0.5-0.1,1.1-0.1,1.6C539.8,49.1,540,49.3,540,49.6z M541.1,24.9c0.1,0,0.1-0.1,0.2-0.1c-0.6-2.2-1.6-4.2-2.9-6.1
		c-0.1,0.1-0.3,0.1-0.4,0.1C539.1,20.9,540.1,22.9,541.1,24.9z M510.9,35.8c0.1,0,0.2,0,0.2,0c-0.1-1.2-0.3-2.5-0.4-3.8
		c-1.2,1.1-1.2,1.5-0.6,2.6C510.5,35,510.7,35.4,510.9,35.8z M503.6,49.3c0.6-1.1,0.7-5.8,0-6.6C503.6,45,503.6,47.1,503.6,49.3z
		 M502.3,41.9c-0.1,2.3-0.2,4.7-0.3,7c0.1,0,0.2,0,0.3,0C502.5,46.6,502.9,44.2,502.3,41.9z M541.6,26.1c-0.1,0-0.1,0-0.2,0
		c0.2,0.8,0.4,1.5,0.5,2.2c0.1,0.8,0.2,1.6,0.3,2.4C542.7,29.7,542.3,27.5,541.6,26.1z M542.2,43.4c-0.8,0.9-0.7,3,0,3.8
		C542.2,45.9,542.2,44.6,542.2,43.4z M540,45.3c0.1-1.1,0.2-2.2,0.3-3.3C539.6,42.7,539.3,44.6,540,45.3z M537,33.2
		c0-0.9,0-1.8,0-2.9C536.4,31.2,536.4,32.7,537,33.2z M515.5,15.9c0-0.1-0.1-0.2-0.1-0.3c-1,0.4-2,0.7-3.1,1.1
		c0,0.1,0.1,0.2,0.1,0.3C513.5,16.6,514.5,16.2,515.5,15.9z M527.7,15.8c0,0.1,0,0.2-0.1,0.3c0.4,0.2,0.7,0.4,1.1,0.5
		c0.1,0,0.3-0.1,0.5-0.1c-0.1-0.1-0.1-0.4-0.2-0.4C528.6,15.9,528.2,15.9,527.7,15.8z M536.9,33.8c-0.1,0-0.2,0-0.3-0.1
		c-0.5,0.4-0.3,0.9-0.1,1.4C536.6,34.7,536.7,34.3,536.9,33.8z M512.7,19.2c-0.8,0.4-0.9,0.9-0.5,1.5
		C512.4,20.2,512.5,19.8,512.7,19.2z"/>
	<path class="st0" d="M517,31.8c-0.5-0.9-0.2-1.4,0.8-1.4c0.5,0,1,0.1,1.5,0c-0.3-0.1-0.6-0.3-0.9-0.4c0.2-0.1,0.3-0.3,0.5-0.4
		c0,0,0-0.1,0-0.1c-0.3,0.1-0.6,0.2-0.9,0.3c-0.5,0.1-0.9,0.3-1.4,0.5c-0.6,0.2-1.3,0.4-1.9,0.7c-0.6,0.2-0.9,0.1-1-0.4
		c0-0.3,0-0.6,0-0.9c0-0.3,0.1-0.5,0.1-0.9c-0.6-0.1-1.2-0.1-1.8-0.2c-0.2,0-0.4,0.1-0.6,0.2c-0.6,0.5-0.9,0.4-1.1-0.3
		c-0.1-0.3-0.1-0.6-0.2-1c-0.2,0-0.5-0.1-0.8-0.1c0-0.4,0.1-0.8,0.1-1.1c0-0.2-0.3-0.3-0.5-0.5c-0.1,0.2-0.3,0.3-0.4,0.5
		c-0.1,0.5-0.2,1.1-0.4,1.6c0-0.5,0-1,0-1.5c-0.5,0.2-0.8,0.3-1.2,0.4c-0.3-1.7,0.1-3.3,1-4.7c0.7-1.1,1.7-2.1,2.6-3.1
		c0.4-0.4,1-0.6,1.5-0.9c0.1,0.1,0.1,0.1,0.2,0.2c-0.6,0.5-1.3,1-1.8,1.6c-0.5,0.6-0.9,1.2-1.3,1.9c-0.2,0.3-0.2,0.6-0.3,0.8
		c-0.3,0.6-0.1,1,0.5,1.5c0.1-0.5,0.2-0.9,0.3-1.3c0.1,0,0.2,0,0.3,0c0,0.9,0,1.9,0,2.9c0.2-0.3,0.4-0.4,0.5-0.6
		c0.4,0.2,0.7,0.5,1.1,0.5c0.6,0,1.4-0.1,1.6-0.4c0.3-0.4,0.2-1.1,0.4-1.9c-1.3,0.3-0.6,1.5-1.5,1.9c-0.7-1-1.4-2-0.7-3.3
		c0.3-0.2,0.3-0.2,1.8,0.7c0.1-0.5,0.2-1,0.3-1.6c-0.4,0-0.8,0.1-1.1,0.1c0.4-1.1,1.1-1.7,2.1-1.9c-0.6,1.3-1,2.7-0.3,4
		c0.2,0.3,0.6,0.4,1,0.6c-1.1-1.1-1-2.5-0.6-3.6c0.4-1.1,1.7-1.8,3.3-1.6c0.3,0.4,0,0.5-0.5,0.7c-0.6,0.2-0.5,0.4,0,0.9
		c0.6-0.7,1.1-1.4,1.6-2c0.5-0.6,0.8-0.2,1.2,0.1c0.4-0.2,0.8-0.5,1.2-0.7c0.2-0.1,0.6-0.3,0.8-0.2c0.5,0.2,0.8,0,1.1-0.3
		c0.5-0.6,1-0.3,1.5-0.1c0.3,0.2,0.6,0.3,1,0.6c0.1,0.7-0.1,1.4-0.7,2c-0.5,0.6-0.9,1.3-1.5,2.1c0.4-0.1,0.6-0.1,0.7-0.2
		c1-0.6,1.7-1.2,1.6-2.4c0-0.6,0.4-1.2,0.6-1.8c1.8,0.1,1.8,0.1,1.2,1.1c0.1,0.1,0.2,0.2,0.3,0.2c0.7,0.1,0.8,0.6,0.9,1.2
		c0,0.3,0.3,0.6,0.7,0.8c-0.3-1.2-0.1-2.2,0.6-3.3c0.1,0.5,0.1,0.8,0.2,1.1c0.3,0.6,0.6,1.3,1,1.9c0.2,0.4,0.9,0.8,0.2,1.4
		c0.3-0.1,0.6-0.2,0.9-0.3c-0.3-1.1-0.5-2.1-0.8-3.1c0.1,0,0.2-0.1,0.4-0.1c0.7,1.1,1.3,2.3,2,3.5c-0.5,0.1-1,0-1.1,0.2
		s0,0.6-0.1,0.8c-0.3,1,0,1.9,0.3,2.9c0.2,0.6,0.3,1.5-0.4,2.1c-0.2,0.2-0.3,0.6-0.5,0.9c-0.2,0.4-0.2,1-1,0.7c-0.8,0.8-1.6,0-2.6,0
		c0.2-0.3,0.4-0.6,0.7-1c-0.2,0-0.5-0.1-0.7,0c-1.1,0.3-2.2,0.7-3.3,1.1c-0.3,0.1-0.6,0.4-0.6,0.6c-0.2,0.9-0.5,1.9-0.3,2.8
		c0.1,0.9-0.3,1.4-0.7,2.1c-0.4,0.6-0.7,1.1-1.1,1.7c-0.2,0.3-0.6,0.4-0.9,0.6c-0.3,0.3-0.6,0.7-0.8,1.1c0.2,0.1,0.4,0.2,0.5,0.2
		c0.3,0,0.7-0.2,1-0.1c1,0.4,1.7,0.1,2.4-0.5c0.4-0.4,0.9-0.6,1.3,0c1-0.4,1-0.5,0.3-1.1c-0.4,0.5-0.9,0.7-1.5,0.3
		c-0.7-0.4-0.7-1-0.3-1.9c0.5,0.3,1,0.5,1.5,0.8c0.1,0,0.1-0.1,0.2-0.1c-0.3-0.4-0.6-0.9-0.9-1.4c-0.2-0.4-0.5-0.8-0.5-1.2
		c0.2-1,0.5-2,0.9-2.9c0.2-0.5,0.6-0.5,1.1-0.4c0.2,0.1,0.5,0.1,0.7,0c1.3-0.6,2.1-0.5,3.2,0.4c0.1,0.1,0.5,0,0.7,0
		c0.5-0.1,1.2-0.4,1.6-0.2c0.8,0.4,1.3,1.2,1.1,2c-0.3,1.2-0.6,2.4-1.1,3.6c-0.2,0.5-0.9,0.8-1.3,1.2c-0.7,0.8-1.4,1.6-1.3,2.9
		c0,0.6,0.3,1.5-0.5,2.1c-0.1,0.1-0.1,0.3-0.1,0.4c0.2,2-0.8,3.4-2.8,4.2c-0.4,0.1-0.7,0.5-1.1,0.6c-0.6,0.2-1.3,0.3-2,0.3
		c-0.7,0-1.4-0.1-2.1,0c-2.2,0-4.2-1.3-4.9-3.1c-0.2-0.4-0.3-0.9-0.5-1.4c-0.9-0.1-1.3,0.4-1.7,1.2c-0.2-0.4-0.4-0.6-0.4-0.8
		c0.1-1.2,0.2-2.3,0.3-3.5c0-0.2,0-0.4,0-0.5c-0.1-0.4-0.2-0.8-0.4-1.2c0-0.1-0.1-0.3-0.2-0.4c-0.5-0.5-1.2-1-1.1-1.9
		c-1.2-1-0.3-2.2-0.5-3.3c-0.1-1,1.2-1.5,2.4-1.3C515.8,31.9,516.4,31.8,517,31.8z M526.4,41.6c-0.8-0.2-1.7-0.7-2.5,0
		C524.7,41.6,525.6,41.6,526.4,41.6z M523.3,43.4c-0.6,0-1.2,0.1-1.8,0.1c0,0.1,0,0.2,0,0.3C522.2,44.2,522.8,43.7,523.3,43.4z
		 M521.5,41.6c0.7,0.3,1.4,0.4,1.9-0.2C522.8,41.5,522.1,41.6,521.5,41.6z"/>
	<path class="st0" d="M517.7,65.1c-0.2-0.7-0.6-1.1-1.3-1.1c-0.6,0-0.9-0.3-0.8-0.9c0-0.2-0.1-0.5-0.2-0.8c-0.1-0.2-0.2-0.4-0.3-0.6
		c-0.1-0.1-0.1-0.3-0.2-0.3c-1.3-0.3-1.4-1.4-1.8-2.2c-0.2-0.5-0.5-0.6-1-0.6c-0.6,0.1-1.7-1.2-1.5-1.7c0-0.1,0.4-0.2,0.5-0.2
		c0.2,0.1,0.3,0.2,0.5,0.4c0.4,0.5,0.9,0.7,1.4,0.1c0.8,0.6,1.6,1.2,2.3,1.8c0.4-0.4,0.9-0.8,1.1-1.2c0.1-0.3,0-0.9-0.3-1
		c-0.5-0.3-0.5-0.6-0.6-1.1c-0.1-0.4-0.2-0.9-0.4-1.3c-0.1-0.3-0.2-0.6-0.4-1c-0.2-0.4-0.4-0.8-0.5-1.2c-0.1-0.3-0.3-0.7-0.2-1
		c0.3-0.7,0.7-1.4,1.1-2c0.1-0.1,0.5-0.2,0.7-0.1c2.4,0.6,4.7,1.3,7.1,1.9c1,0.2,2,0.3,3,0.5c0.8,0.1,1,0.4,0.7,1.1
		c-0.3,0.7-0.5,1.4-1.6,1.5c-0.7,0.1-0.8,0.7-0.5,1.1c0.5,0.9,0.6,1.6-0.2,2.4c-0.4,0.4-0.2,1,0.3,1.3c0.4,0.2,0.8,0.4,1.3,0.6
		c0,0.1,0,0.2-0.1,0.3c-0.7,0.5-0.7,0.9,0.2,1.2c0.3,0.1,0.3,0.8,0.5,0.9c1.3,0.5,0.7,1.4,0.6,2.1c0,0.4-0.9,0.7-1.4,0.9
		c-0.1,0-0.5-0.4-0.7-0.6c-0.2-0.2-0.2-0.4-0.4-0.5c-0.3-0.1-0.8-0.2-0.9-0.1c-0.2,0.3-0.4,0.8-0.4,1.2c0.1,0.5,0.1,0.9-0.4,1.2
		c-0.6,0.4-1.2,0.3-1.7,0C520.3,65.3,519.1,65.1,517.7,65.1z"/>
	<path class="st0" d="M509.9,42.1c-1-0.6-1.9-1.2-2.9-1.8c-1.1-0.7-2-1.4-2-2.8c0-0.8-0.3-1.7-0.3-2.5c0-1.2,0.8-2.1,1.4-3.1
		c0.3-0.5,0.5-1.1,0.5-1.7c0.1-0.8,0-1.5,0-2.4c0.1,0,0.4-0.1,0.8-0.2c-0.1,1.1-0.2,2.2-0.3,3.2c0,0.3,0,0.7,0.2,0.9
		c0.5,0.6,1.2,1.1,1.8,1.6c0.3,0.3,0.4,0.7,0.5,1.1c0,0.2-0.1,0.4-0.2,0.6c-0.2-0.1-0.5-0.1-0.7-0.2c-0.8-0.6-2.1-0.7-2.7-0.2
		c-0.8,0.7-1.2,1.7-0.2,2.8c0-0.4,0.1-0.6,0-0.9c-0.2-0.7,0.2-1.3,0.8-1.6c0.7-0.3,1.7-0.1,2.2,0.5c0.1,0.2,0.1,0.7-0.1,0.8
		c-1.2,1-1.2,1.2,0.1,2.1c0.1,0.1,0.2,0.1,0.2,0.2c0.9-0.7,0.9-0.7,1.4,0.3c0.3,0.6,0.5,1.2,0.7,1.9c0.1,0.3,0,0.6-0.1,1
		c-0.3-0.2-0.5-0.3-0.7-0.4C510.3,41.8,510.1,41.9,509.9,42.1z"/>
	<path class="st0" d="M508.7,45.9c-0.1,1.3-0.2,2.6-0.3,3.8c-0.1,0-0.1,0-0.2,0c0-2.4,0-4.8,0-7.3c0.7,0.2,0.8,0.6,0.6,1.1
		c-0.1,0.2-0.2,0.5-0.1,0.7c0,0.1,0.4,0.2,0.6,0.1c0.2-0.1,0.3-0.4,0.6-0.7c0.6,0.5,1.4,1,1.9,1.6c0.3,0.4,0.4,1-0.2,1.6
		c-0.1-0.4-0.1-0.7-0.2-1c-0.3,0.9-0.2,1.1,0.6,1.1c0.4,0,0.4,0.2,0.3,0.5c-0.3,1.5-0.5,3-0.8,4.5c-0.1,0.6-0.1,1.2-0.9,1.8
		c0.3-2.7,0.3-5.1-0.7-7.6C509.6,46,509.3,45.9,508.7,45.9z"/>
	<path class="st0" d="M540,39c0.1-0.4,0.2-0.6,0.2-0.8c0-0.1,0-0.4,0-0.5c-0.8-0.4-0.2-0.8,0-1.2c0.1-0.3,0.2-0.7,0.1-1
		c-0.1-0.7-0.3-1.4-0.4-2.1c0-0.2,0.4-0.5,0.6-0.5c0.3,0,0.7,0.2,0.9,0.4c0.2,0.1,0.2,0.4,0.2,0.6c0.1,0.6,0.2,1.2,0.4,1.8
		C542.5,37.1,541.8,38.1,540,39z"/>
	<path class="st0" d="M506,50.1c0.4-3.2-0.3-6.3,0.3-9.3c1.1,0.2,1.4,0.5,1,1.2c-0.5,1.1-0.2,2.3-0.3,3.4c-0.2,1.4-0.4,2.9-0.7,4.3
		C506.3,49.8,506.2,49.8,506,50.1z"/>
	<path class="st0" d="M531.6,15.6c-4-1.7-8.1-1.3-12.2-0.8c0-0.1-0.1-0.1-0.1-0.2c0.5-0.2,1-0.5,1.5-0.5c2.8-0.1,5.6-0.4,8.4,0.1
		c0.7,0.1,1.3,0.3,2,0.6c0.2,0.1,0.4,0.4,0.5,0.6C531.7,15.5,531.7,15.5,531.6,15.6z"/>
	<path class="st0" d="M540.6,29.9c0.6,0.6,1.1,1.2,1.6,1.8c0.1,0.2-0.1,0.6-0.2,0.9c-0.1,0.1-0.5,0.1-0.7,0.1
		c-0.6-0.1-1.1-0.2-1.7-0.3c-0.4-0.1-0.6-0.3-0.4-0.6C539.6,31.2,540.1,30.6,540.6,29.9z"/>
	<path class="st0" d="M540,49.6c-0.1-0.2-0.2-0.4-0.2-0.7c0-0.6,0-1.1,0.1-1.6c0-0.4-0.2-0.8-0.6-0.7c-0.3,0-0.7,0.3-0.8,0.5
		c-0.2,0.6-0.3,1.2-0.4,1.8c0,0.1-0.1,0.2-0.2,0.5c-0.2-0.2-0.3-0.4-0.3-0.5c0-0.6,0-1.2,0-1.9c0-0.7,0.5-1.1,1.2-1.1
		c1.6-0.1,1.8,0.1,1.7,1.5c0,0.7-0.1,1.4-0.1,2.1C540.3,49.5,540.1,49.5,540,49.6z"/>
	<path class="st0" d="M541.1,24.9c-1-2-2-4-3-6c0.1-0.1,0.3-0.1,0.4-0.1c1.2,1.9,2.3,3.9,2.9,6.1C541.2,24.8,541.1,24.8,541.1,24.9z
		"/>
	<path class="st0" d="M510.9,35.8c-0.2-0.4-0.5-0.8-0.7-1.2c-0.7-1.1-0.6-1.5,0.6-2.6c0.1,1.4,0.3,2.6,0.4,3.8
		C511.1,35.8,511,35.8,510.9,35.8z"/>
	<path class="st0" d="M503.6,49.3c0-2.1,0-4.3,0-6.6C504.3,43.4,504.2,48.2,503.6,49.3z"/>
	<path class="st0" d="M502.3,41.9c0.6,2.4,0.2,4.7,0,7c-0.1,0-0.2,0-0.3,0C502.1,46.6,502.2,44.2,502.3,41.9z"/>
	<path class="st0" d="M541.6,26.1c0.7,1.3,1.1,3.5,0.6,4.6c-0.1-0.8-0.2-1.6-0.3-2.4c-0.1-0.8-0.4-1.5-0.5-2.2
		C541.5,26.1,541.5,26.1,541.6,26.1z"/>
	<path class="st0" d="M542.2,43.4c0,1.2,0,2.5,0,3.8C541.5,46.4,541.4,44.3,542.2,43.4z"/>
	<path class="st0" d="M540,45.3c-0.7-0.6-0.4-2.6,0.3-3.3C540.2,43.1,540.1,44.1,540,45.3z"/>
	<path class="st0" d="M537,33.2c-0.6-0.5-0.6-2,0-2.9C537,31.4,537,32.2,537,33.2z"/>
	<path class="st0" d="M515.5,15.9c-1,0.4-2,0.7-3,1.1c0-0.1-0.1-0.2-0.1-0.3c1-0.4,2-0.7,3.1-1.1C515.4,15.7,515.5,15.8,515.5,15.9z
		"/>
	<path class="st0" d="M527.7,15.8c0.4,0.1,0.9,0.1,1.3,0.2c0.1,0,0.1,0.3,0.2,0.4c-0.2,0.1-0.4,0.2-0.5,0.1
		c-0.4-0.1-0.7-0.3-1.1-0.5C527.7,16,527.7,15.9,527.7,15.8z"/>
	<path class="st0" d="M536.9,33.8c-0.1,0.5-0.3,0.9-0.4,1.4c-0.2-0.5-0.4-1.1,0.1-1.4C536.7,33.8,536.8,33.8,536.9,33.8z"/>
	<path class="st0" d="M512.7,19.2c-0.2,0.6-0.3,1-0.5,1.5C511.8,20.1,511.9,19.6,512.7,19.2z"/>
	<path class="st2" d="M526.4,41.6c-0.8,0-1.7,0-2.5,0C524.7,40.9,525.6,41.4,526.4,41.6z"/>
	<path class="st2" d="M523.3,43.4c-0.5,0.4-1.1,0.8-1.7,0.4c0-0.1,0-0.2,0-0.3C522.1,43.4,522.7,43.4,523.3,43.4z"/>
	<path class="st2" d="M521.5,41.6c0.6-0.1,1.3-0.1,1.9-0.2C522.8,42,522.2,41.9,521.5,41.6z"/>
</g>
<path class="st0" d="M134.1,13.8c3.4,0,5.7,0,8.1,0c1.7,0,3.4-0.1,5.1,0.1c0.9,0.1,2.4,1.4,2.3,1.6c-2.6,4.2,2.1,6.2,3.6,9
	c3.6,6.7,7.9,13,11.9,19.5c0.3,0.4,0.5,1,0.9,1.1c5.2,0.8,6.1,5.5,9.3,8.1c1.8,1.4,3.1,2.8,5.7,1.5c0.6-0.3,1.6-0.1,2.5-0.1
	c0,0.8,0.3,1.6-0.1,2.2c-2.2,3.8-5.3,6.9-10.4,7c-3.2,0.1-6.5-0.4-11-0.8c2.1-0.9,3.2-1.5,4.4-1.8c2.7-0.8,4.4-2.1,2.5-4.6
	c-3.8-5.1-6.1-11-11.1-15.6c-4.2-3.9-7.5-8.7-11-13.2c-2.3-3.1-2.3-3.2-5.2-0.4c-2.9,2.8-5.9,5.3-6.1,9.6c-0.1,1.1-1.2,2.4-2.2,3.3
	c-6,5.6-7.2,13.3-11.1,19.7c-0.4,0.7,0.9,2.5,1.7,3.6c0.5,0.6,1.5,1,2.5,1.6c-6.3,0-12.1,0.1-17.9-0.1c-0.6,0-1.2-1.3-1.8-2.1
	c-2-2.9-4.1-5.7-6.1-8.6c-3.2-4.8-6.4-9.6-9.6-14.4c-0.3-0.4-0.4-0.9-0.7-1.2c-3.6-4.3-7.3-8.6-10.9-12.9c-1.3-1.6-2.9-2.6-4.3-0.7
	c-1.9,2.6-4.3,2.6-7.4,2c0,3.2,0.8,6.5-0.2,9.3c-1.4,3.9-6.3,0.1-9,2.3c3.1,4.1,3.1,7.2-1.4,10.5c-1.8,1.3-5.3,0.6-8.1,0.8
	c0.3-1.7,0.1-3.8,1.1-5c1.9-2.5,4.5-4.5,6.1-7.1c0.9-1.6,1.7-3.4,2.8-4.9c0.9-1.2,2.1-2.5,3.6-3.2c4.6-2.3,4.9-6.8,6.4-10.5
	c0.6-1.5-1.5-3.9-2.6-6.2c1.2,0,2.4,0,3.6,0c3.1-0.1,6.3,0.2,9.3-0.2c4.3-0.6,5.5-0.4,5.4,3.4c0,4.1,1.7,7.3,3.9,10.5
	c4.1,6.1,8.3,12.1,12.5,18.2c0.6,0.9,1.8,1.4,2.5,2.2c1.7,1.8,4.1,3.5,4.7,5.6c0.7,2.7,2.5,3,4.7,3.4c2.5,0.5,3.4-1,4.4-2.6
	c5.1-8.3,10.4-16.5,15.5-24.8c1.7-2.6,3.3-5.3,4.7-8.1c0.4-0.9,0.1-2.2-0.4-3.2C136.6,16.5,135.7,15.7,134.1,13.8z"/>
<path class="st0" d="M199.7,62.4c-5.3,2.8-10.3,2.1-15.9,0c1.1-1.1,1.8-2.5,2.9-3c3.3-1.4,4.8-3.4,5.4-6.7c0.5-2.7,2.3-5.2,3.5-7.7
	c1-2.2,1.6-4.5,3-6.4c1.4-1.8,3.5-3.1,5.6-5c0.9-1.7,1.9-4.3,3.5-6.4c2.7-3.6,2-7.8-2.6-11.9c5-0.4,9.7-0.9,13.3-1.2
	c4.1,7,7.9,13.5,11.8,19.9c0.4,0.6,1.5,0.9,2.3,1.2c2.8,1.2,5.6,2.3,8.3,3.6c0.9,0.5,2.2,1.9,2,2.5c-0.3,1.1-1.5,2.6-2.6,2.7
	c-3.8,0.6-3.6,2.6-2.3,4.9c1.4,2.6,3,5.2,4.6,7.8c0.3,0.6,1.1,0.9,1.7,1.4c1.2,1.1,2.4,2.3,3.7,3.4c-1.6,1.4-3.4,4.1-4.9,4
	c-3.4-0.2-6.8-1.8-10-3c-0.4-0.1-0.5-1.6-0.3-2.3c1.1-3.7,0.3-6.9-2.6-9.8c-1.1-1.1-1.3-2.8-2.2-4.1c-0.7-1-1.9-1.7-3.5-2.3
	c0.3,4.1-2,6.6-4.9,8.7c-2.7,2-4.8,1.6-6.6-1.2c-1.3-1.9-2.4-4-3.9-5.7c-2.1-2.3-3.7-1.8-6,0.3C197.8,51.3,197.3,56.7,199.7,62.4z
	 M208.9,36.9c1.3,0.9,2.9,2.4,5,3.2c1.2,0.5,3.3,0.5,4.4-0.1c1.6-0.9,4-2.8,3.7-3.8c-0.9-3.5-2.7-6.8-4.4-10.1
	c-0.4-0.8-1.9-1.2-2.7-1.6C212.9,28.9,211,32.7,208.9,36.9z"/>
<path class="st0" d="M304.6,60.9c-6.3,1-10.4-1.9-14.7-3.9c-5.3-2.6-10.1-5.9-15.3-8.8c-1-0.6-3-1.2-3.3-0.9
	c-0.9,0.9-1.7,2.4-1.7,3.6c-0.1,2.8,0.6,5.6,0.4,8.4c-0.1,2.4-0.1,5.4-4.2,5.3c-4.3-0.1-3.8-3.6-3.8-5.9c-0.1-7.4,0.4-14.8,0.4-22.2
	c0-5.1-0.1-10.3-0.8-15.4c-0.3-1.7-2.5-3.4-4.2-4.8c-2.5-1.9-5.4-3.5-8.2-5.2c0.2-0.5,0.3-0.9,0.5-1.4c1.9,0.2,3.9,0.1,5.6,0.7
	c4.1,1.5,8.1,1.8,12.7,1.3c8.6-0.9,16.9-0.6,22.9,6.9c3.9,4.9,1,17.2-6.3,18.5c-2.9,0.5-5.7,1.6-9.2,2.7
	C283.5,49.1,295.2,53.4,304.6,60.9z M274.1,34.5c0.1,0.4,0.2,0.7,0.3,1.1c3.2-1.4,6.6-2.6,9.4-4.4c3.5-2.2,3.8-8.9,0.7-11.1
	c-3.4-2.4-7.3-4.4-11.9-3.5c-1.2,0.2-2.9,1.7-3,2.7c-0.3,3.9,0,7.9-0.2,11.8C269.3,34,269.5,36.3,274.1,34.5z"/>
<path class="st0" d="M45.4,63.7c-1.5-1.2-3-2-3.7-3.1c-1.4-2.2,0.9-7.5,3.6-8.1c1.5-0.3,3.4,0.1,4.8,0.8c0.7,0.3,0.9,2,0.7,3
	c-0.3,1.7-0.8,3.5-1.7,5C48.5,62.2,47,62.7,45.4,63.7z"/>
<path class="st0" d="M247,40.7c-1.3-2.5-2.2-4.2-3.1-5.9c0.3-0.3,0.5-0.5,0.8-0.8c1.8,0.9,3.5,1.8,5.3,2.7
	C249.2,37.8,248.4,38.9,247,40.7z"/>
</svg>
